<svg width="610" height="515" viewBox="0 0 610 515" fill="none" xmlns="http://www.w3.org/2000/svg">
<path d="M67.4037 490.71C67.4037 506.927 57.7734 512.589 45.8928 512.589C45.6176 512.589 45.3428 512.586 45.0685 512.58C44.518 512.568 43.9728 512.542 43.4341 512.505C32.7121 511.746 24.3819 505.792 24.3819 490.71C24.3819 475.102 44.307 455.407 45.8037 453.949L45.8063 453.947C45.864 453.89 45.8928 453.863 45.8928 453.863C45.8928 453.863 67.4037 474.493 67.4037 490.71Z" fill="#6D17CB"/>
<path d="M45.1091 510.108L52.9766 499.104L45.0894 511.317L45.0685 512.58C44.518 512.568 43.9728 512.542 43.4341 512.505L44.2821 496.281L44.2755 496.155L44.29 496.131L44.3699 494.599L36.463 482.356L44.3948 493.449L44.4132 493.775L45.054 481.516L38.2848 468.865L45.1366 479.364L45.8037 453.949L45.8063 453.863V453.947L45.6949 473.988L52.434 466.043L45.6674 475.714L45.4892 486.69L51.7814 476.156L45.463 488.305L45.3634 494.407L54.4982 479.746L45.3293 496.536L45.1091 510.108Z" fill="#3F3D56"/>
<path d="M528.575 284.655C528.575 411.815 470.899 512.129 399.873 514.898C307.248 518.509 186.193 426.059 271.17 284.655C336.652 175.692 328.792 54.4125 399.873 54.4125C470.953 54.4125 528.575 157.496 528.575 284.655Z" fill="#F2F2F2"/>
<path d="M453.855 352.256H270.345V511.784H453.855V352.256Z" fill="#6D17CB"/>
<path d="M0 511.784H610" stroke="#3F3D56" stroke-width="2" stroke-miterlimit="10"/>
<path d="M387.511 193.518C387.511 193.518 418.044 194.349 423.086 196.186C428.129 198.022 430.384 211.155 430.384 211.155L406.677 218.614L388.946 217.608L375.601 218.552L383.053 199.018L387.511 193.518Z" fill="#2F2E41"/>
<path d="M388.828 183.489C388.828 183.489 390.837 191.256 386.379 196.755C381.92 202.255 405.545 221.851 405.545 221.851L418.008 219.706C418.008 219.706 415.261 195.842 418.951 189.799C422.641 183.756 388.828 183.489 388.828 183.489Z" fill="#F8ABB2"/>
<path opacity="0.1" d="M388.828 183.489C388.828 183.489 390.837 191.256 386.379 196.755C381.92 202.255 405.545 221.851 405.545 221.851L418.008 219.706C418.008 219.706 415.261 195.842 418.951 189.799C422.641 183.756 388.828 183.489 388.828 183.489Z" fill="#FFBFC5"/>
<path d="M471.715 410.57L444.216 447.075L462.982 458.043L488.811 415.741L471.715 410.57Z" fill="#FFBFC5"/>
<path d="M452.426 447.69C452.426 447.69 442.299 435.912 442.75 438.539C443.201 441.165 435.545 463.439 442.668 465.594C449.792 467.748 510.878 473.463 511.718 466.558C512.559 459.653 493.495 454.821 493.495 454.821C493.495 454.821 482.169 443.925 479.658 445.033C477.147 446.141 452.426 447.69 452.426 447.69Z" fill="#2F2E41"/>
<path d="M465.545 445.433L487.509 482.892L504.093 473.279L481.944 442.612L465.545 445.433Z" fill="#FFBFC5"/>
<path d="M500.218 356.316L493.7 365.55C493.7 365.55 462.624 408.754 465.924 412.243C469.224 415.731 482.969 428.915 489.959 426.36C496.949 423.805 521.783 379.647 521.783 379.647L515.305 353.72L500.218 356.316Z" fill="#2F2E41"/>
<path d="M366.352 347.575C366.352 347.575 373.311 360.574 390.95 364.976C408.589 369.377 427.018 378.375 427.674 378.262C428.329 378.149 430.185 377.154 430.636 379.781C431.087 382.407 435.924 386.983 435.924 386.983C435.924 386.983 455.408 453.261 462.849 453.333C470.29 453.405 485.582 448.07 485.9 445.987C486.218 443.904 463.116 376.22 462.89 374.907L460.184 359.148C460.184 359.148 490.737 364.032 493.587 364.893C496.436 365.755 521.783 379.647 521.783 379.647C521.783 379.647 547.621 361.005 523.453 342.178C499.285 323.351 457.745 309.542 457.745 309.542L442.842 305.345L429.854 304.569L427.942 297.228L397.182 299.005L365.081 312.64L366.352 347.575Z" fill="#2F2E41"/>
<path d="M406.949 198.949C420.182 198.949 430.91 188.21 430.91 174.963C430.91 161.717 420.182 150.978 406.949 150.978C393.716 150.978 382.988 161.717 382.988 174.963C382.988 188.21 393.716 198.949 406.949 198.949Z" fill="#FFBFC5"/>
<path d="M385.272 194.242L388.153 193.746C388.153 193.746 393.358 213.807 409.46 217.121C409.46 217.121 417.405 207.593 417.066 205.986C416.727 204.378 423.358 195.801 426.884 200.603C430.41 205.404 426.023 289.986 428.985 291.505C431.947 293.023 438.302 294.634 433.187 300.246C428.073 305.858 407.759 313.41 403.259 310.804C398.76 308.198 389.566 286.119 385.59 278.69C381.613 271.262 375.248 245.992 375.248 245.992C375.248 245.992 367.12 218.322 372.122 212.053C377.123 205.784 385.272 194.242 385.272 194.242Z" fill="#D0CDE1"/>
<path d="M408.203 298.371C407.668 304.263 406.751 310.114 405.459 315.887C404.284 320.584 402.915 323.42 401.354 323.299C397.37 323.001 395.559 328.85 394.625 335.594C393.627 342.749 393.627 350.91 393.08 353.795C392.355 357.606 387.719 360.514 378.455 359.66C372.938 359.032 367.523 357.703 362.342 355.704C349.834 351.152 350.204 314.235 352.297 286.841C353.577 270.051 355.5 256.829 355.5 256.829C355.5 256.829 351.701 245.485 350.486 237.71C350.244 236.291 350.123 234.855 350.124 233.416C350.309 226.624 362.696 208.27 370.181 196.837C377.675 185.404 387.896 193.792 387.896 193.792L384.339 204.54C384.339 204.54 389.852 213.056 389.893 221.161C389.933 229.266 403.092 235.116 407.817 239.039C410.787 241.505 410.714 274.418 408.203 298.371Z" fill="#2F2E41"/>
<path d="M418.608 197.632C418.608 197.632 419.471 198.654 423.425 198.156C428.166 197.558 434.686 199.2 436.2 203.732C438.978 212.042 446.809 245.848 446.809 245.848C446.809 245.848 450.068 284.497 451.534 293.033C452.999 301.57 452.272 309.131 453.717 313.615C455.162 318.098 439.45 305.253 433.659 306.925C427.868 308.598 424.148 286.929 424.875 279.367C425.603 271.806 426.218 263.588 424.209 255.821C422.2 248.054 425.762 227.499 425.628 222.79C425.495 218.08 412.86 206.211 418.608 197.632Z" fill="#2F2E41"/>
<path d="M435.561 317.752C435.561 317.752 460.931 331.607 463.359 351.327C465.787 371.047 429.426 332.233 429.426 332.233L435.561 317.752Z" fill="#FFBFC5"/>
<path d="M450.043 303.768C450.043 303.768 457.817 342.992 469.927 340.909C482.037 338.825 463.163 301.511 463.163 301.511L450.043 303.768Z" fill="#FFBFC5"/>
<path d="M491.517 474.766C491.517 474.766 485.316 481.917 483.778 480.83C482.241 479.742 478.705 494.547 481.893 497.379C485.08 500.211 497.359 504.858 497.492 509.568C497.625 514.277 530.556 513.343 531.735 508.408C532.914 503.473 527.605 492.218 523.874 490.156C520.143 488.094 506.349 469.113 506.349 469.113C506.349 469.113 495.545 470.693 491.517 474.766Z" fill="#2F2E41"/>
<path opacity="0.1" d="M431.52 341.742C425.637 337.584 409.209 336.553 394.625 335.594C388.226 335.183 382.182 334.78 377.538 334.128C373.063 333.507 369.038 329.414 365.465 323.315C360.048 314.074 355.67 300.216 352.297 286.841C353.577 270.051 355.5 256.829 355.5 256.829C355.5 256.829 351.702 245.485 350.486 237.71C351.343 236.517 352.446 235.522 353.722 234.793C369.191 228.146 383.961 293.561 385.836 303.825C385.868 303.995 385.892 304.156 385.916 304.293C386.826 309.578 396.653 314.098 405.459 315.887C410.883 316.991 415.93 317.063 418.256 315.629C424.365 311.874 443.151 326.901 444.575 327.328C446 327.763 439.971 347.728 431.52 341.742Z" fill="black"/>
<path d="M353.724 230.767C353.724 230.767 342.481 236.081 347.421 260.92C352.361 285.76 362.314 327.989 377.534 330.103C392.754 332.216 423.061 331.734 431.517 337.715C439.973 343.697 445.999 323.731 444.575 323.3C443.15 322.869 424.363 307.849 418.254 311.604C412.146 315.359 387.383 308.803 385.918 300.267C384.452 291.731 369.447 224.005 353.724 230.767Z" fill="#2F2E41"/>
<path d="M434.745 218.855L447.102 247.557C447.102 247.557 448.346 246.936 449.791 251.42C451.236 255.903 451.913 259.843 454.444 262.787C456.976 265.732 468.24 307.736 468.578 309.706C468.917 311.676 453.021 318.467 449.469 312.994C445.917 307.52 434.745 218.855 434.745 218.855Z" fill="#2F2E41"/>
<path d="M393.317 174.629C394.235 174.384 394.37 173.164 394.401 172.213C394.566 167.12 397.629 161.895 402.498 160.413C404.367 159.9 406.323 159.792 408.237 160.096C410.968 160.461 413.605 161.341 416.008 162.692C417.276 163.406 418.52 164.265 419.959 164.483C420.909 164.627 425.023 165.824 425.969 165.993C428.049 166.363 429.982 168.226 431.978 167.533C433.887 166.87 434.31 164.395 434.356 162.372C434.461 157.764 430.967 151.386 427.888 147.958C425.553 145.357 422.035 144.156 418.597 143.531C414.581 142.885 410.511 142.637 406.446 142.791C400.944 142.89 395.289 143.315 390.328 145.698C385.366 148.081 381.199 152.824 380.961 158.328C380.911 159.474 381.03 160.626 380.933 161.769C380.698 164.558 379.219 167.078 378.524 169.79C378.028 171.78 377.954 173.851 378.307 175.871C378.659 177.892 379.431 179.815 380.572 181.519C382.413 184.231 385.307 186.685 385.201 189.963L389.194 185.822C389.79 185.366 390.212 184.719 390.389 183.99C390.567 183.26 390.489 182.491 390.169 181.812L388.755 176.294C388.392 175.309 388.349 174.234 388.633 173.223C390.148 169.476 391.786 175.039 393.317 174.629Z" fill="#2F2E41"/>
<path d="M210.959 338.46C210.959 414.93 165.545 441.63 109.525 441.63C53.5042 441.63 8.0907 414.93 8.0907 338.46C8.0907 261.99 109.525 164.708 109.525 164.708C109.525 164.708 210.959 261.99 210.959 338.46Z" fill="#F2F2F2"/>
<path d="M105.83 429.932L106.869 365.934L150.102 286.759L107.032 355.895L107.498 327.118L137.295 269.836L107.622 319.503L108.462 267.748L140.369 222.144L108.594 259.609L109.119 164.708L105.821 290.34L106.091 285.157L73.6518 235.452L105.571 295.106L102.549 352.909L102.459 351.374L65.0615 299.066L102.346 356.794L101.968 364.023L101.9 364.131L101.931 364.725L94.2622 511.374H104.508L105.737 435.626L142.93 378.04L105.83 429.932Z" fill="#3F3D56"/>
</svg>
